
            <svg xmlns="http://www.w3.org/2000/svg">
                <filter id="grayscale">
                    <feColorMatrix type="saturate" values="0"/>
                </filter>
                <g filter="url(#grayscale)">
                    <svg xmlns="http://www.w3.org/2000/svg" viewBox="89.24999603271485 123.05999755859375 396.5 343.00000343322756"> <svg xmlns="http://www.w3.org/2000/svg" xmlns:xlink="http://www.w3.org/1999/xlink" version="1.1" id="Layer_1" x="204.49999237060547" y="193.05999755859375" viewBox="323.29345703125 162.19400024414062 189.75 162.90496826171875" enable-background="new 0 0 612 792" xml:space="preserve" height="151.0997051224176" width="175.99937438964844" preserveAspectRatio="xMinYMin" style="overflow: visible;"><path fill-rule="evenodd" clip-rule="evenodd" fill="#191919" d="M416.521,262.858c13.493-0.033,26.986-0.148,40.475-0.013  c15.74,1.071,19.753,8.264,22.752,9.353c-2.476-4.757-6.296-8.275-10.994-10.892c-4.154-2.312-8.643-3.454-13.406-3.44  c-12.943,0.037-25.885,0.059-38.828,0.092v-10.231c13.103-0.013,26.206,0.031,39.307,0.066c12.457,0.033,22.731,5.308,30.121,15.214  c9.247,12.396,10.778,26.13,3.972,40.069c-6.83,13.991-18.524,21.545-34.151,21.753c-13.082,0.174-26.165,0.239-39.249,0.27V262.858  z" style="fill: #385e70; fill-opacity: 1;"></path><path fill-rule="evenodd" clip-rule="evenodd" fill="#8BC53F" d="M482.214,252.125c0,0-6.391-19.278,6.526-25.024  c12.916-5.747,21.441-10.569,21.796-11.483c0,0,5.506,11.312,0.2,22.295c-5.306,10.983-24.974,12.164-26.002,15.434  c0,0,1.632-11.561,10.326-16.613C495.06,236.733,485.145,240.206,482.214,252.125L482.214,252.125z M411.281,258.042  c-11.27,0.034-38.39,0.07-49.66,0.147c-15.636,0.106-28.037,12.716-28.12,28.263c-0.084,15.381,12.212,28.247,27.631,28.478  c11.43,0.17,38.715,0.046,50.149-0.026v10.146c-11.218,0.012-38.287,0.011-49.506,0.017c-10.496,0.005-19.491-3.87-27.001-11.194  c-10.986-10.948-14.618-27.359-8.574-41.566c6.476-15.223,18.288-23.814,34.86-24.131c11.455-0.217,38.764-0.306,50.222-0.35  V258.042L411.281,258.042z M374.995,289.384c-2.232,0-4.04,1.81-4.04,4.04c0,2.232,1.809,4.04,4.04,4.04  c2.23,0,4.039-1.809,4.039-4.04C379.035,291.193,377.226,289.384,374.995,289.384L374.995,289.384z M377.087,266.25  c-1.517,0-2.747,1.23-2.747,2.747c0,1.517,1.23,2.746,2.747,2.746c1.517,0,2.748-1.23,2.748-2.746  C379.835,267.479,378.605,266.25,377.087,266.25L377.087,266.25z M364.732,267.703c-2.231,0-4.04,1.809-4.04,4.04  c0,2.231,1.808,4.04,4.04,4.04c2.231,0,4.04-1.809,4.04-4.04C368.772,269.513,366.963,267.703,364.732,267.703L364.732,267.703z   M352.176,274.248c-3.971,0-7.191,3.22-7.191,7.192c0,3.971,3.22,7.19,7.191,7.19c3.973,0,7.191-3.219,7.191-7.19  C359.367,277.468,356.149,274.248,352.176,274.248L352.176,274.248z M470.347,244.559c0,0,23.528-29.913,4.417-48.259  c-19.112-18.346-31.069-32.269-31.114-34.106c0,0-16.901,16.436-14.536,39.171c2.366,22.734,36.283,37.327,36.013,43.745  c0,0,4.478-21.416-7.632-35.854C457.496,209.257,472.762,221.686,470.347,244.559z" style="fill: #168A53; fill-opacity: 1;"></path></svg> <svg y="371.1" viewBox="0.9600000381469727 6.400000095367432 256.5 24.96000099182129" x="159.24999603271485" height="24.96000099182129" width="256.5" style="overflow: visible;"><g fill="#385e70" fill-opacity="1" style=""><path d="M18.46 25.06L18.59 25.06L25.98 6.40L35.33 6.40L35.33 7.68Q34.27 7.68 33.62 7.89Q32.96 8.10 32.61 8.64Q32.26 9.18 32.14 10.13Q32.03 11.07 32.03 12.51L32.03 12.51L32.03 24.93Q32.03 26.53 32.16 27.46Q32.29 28.38 32.67 28.90Q33.06 29.41 33.78 29.57Q34.50 29.73 35.68 29.76L35.68 29.76L35.68 31.04L23.65 31.04L23.65 29.76Q24.83 29.73 25.55 29.55Q26.27 29.38 26.67 28.90Q27.07 28.42 27.20 27.54Q27.33 26.66 27.33 25.15L27.33 25.15L27.33 10.18L27.17 10.18L18.56 31.36L16.19 31.36L7.30 10.18L7.17 10.18L7.17 24.93Q7.17 26.53 7.30 27.46Q7.42 28.38 7.81 28.90Q8.19 29.41 8.91 29.57Q9.63 29.73 10.82 29.76L10.82 29.76L10.82 31.04L0.96 31.04L0.96 29.76Q2.14 29.73 2.88 29.55Q3.62 29.38 4.02 28.90Q4.42 28.42 4.54 27.54Q4.67 26.66 4.67 25.15L4.67 25.15L4.67 12.29Q4.67 10.94 4.54 10.05Q4.42 9.15 4.06 8.62Q3.71 8.10 3.06 7.89Q2.40 7.68 1.31 7.68L1.31 7.68L1.31 6.40L11.01 6.40L18.46 25.06ZM50.82 9.28L50.82 17.41Q52.87 17.41 54.12 17.28Q55.37 17.15 56.06 16.75Q56.74 16.35 57.03 15.58Q57.32 14.82 57.48 13.50L57.48 13.50L58.66 13.50L58.66 22.88L57.48 22.88Q57.29 21.60 56.97 20.83Q56.65 20.06 55.94 19.66Q55.24 19.26 54.04 19.15Q52.84 19.04 50.82 19.04L50.82 19.04L50.82 25.63Q50.82 26.66 51.10 27.36Q51.37 28.06 52.01 28.50Q52.65 28.93 53.70 29.10Q54.76 29.28 56.30 29.28L56.30 29.28Q58.12 29.28 59.38 29.02Q60.65 28.77 61.48 28.13Q62.31 27.49 62.82 26.42Q63.34 25.34 63.69 23.71L63.69 23.71L64.97 23.71L64.46 31.04L42.76 31.04L42.76 29.76Q43.82 29.73 44.49 29.57Q45.16 29.41 45.51 29.02Q45.86 28.64 45.99 27.94Q46.12 27.23 46.12 26.11L46.12 26.11L46.12 11.33Q46.12 10.21 46.01 9.52Q45.90 8.83 45.58 8.43Q45.26 8.03 44.66 7.89Q44.07 7.74 43.11 7.68L43.11 7.68L43.11 6.40L63.34 6.40L63.56 12.67L62.18 12.67Q61.99 11.33 61.58 10.45Q61.16 9.57 60.42 9.04Q59.69 8.51 58.52 8.30Q57.35 8.10 55.66 8.10L55.66 8.10L52.04 8.10Q51.21 8.10 51.02 8.30Q50.82 8.51 50.82 9.28L50.82 9.28ZM85.55 31.04L72.21 31.04L72.21 29.76Q73.26 29.73 73.92 29.58Q74.58 29.44 74.94 29.04Q75.31 28.64 75.44 27.95Q75.57 27.26 75.57 26.11L75.57 26.11L75.57 11.33Q75.57 10.21 75.47 9.52Q75.38 8.83 75.06 8.43Q74.74 8.03 74.18 7.89Q73.62 7.74 72.72 7.68L72.72 7.68L72.72 6.40L84.88 6.40Q87.95 6.40 90.54 7.36Q93.14 8.32 95.02 10.02Q96.91 11.71 97.97 14.05Q99.02 16.38 99.02 19.14L99.02 19.14Q99.02 21.76 98.03 23.95Q97.04 26.14 95.26 27.71Q93.49 29.28 91.01 30.16Q88.53 31.04 85.55 31.04L85.55 31.04ZM84.82 8.35L80.82 8.35Q80.27 8.35 80.27 8.90L80.27 8.90L80.27 25.44Q80.27 27.30 81.42 28.19Q82.58 29.09 84.98 29.09L84.98 29.09Q89.17 29.09 91.42 26.56Q93.68 24.03 93.68 19.20L93.68 19.20Q93.68 16.64 93.07 14.62Q92.46 12.61 91.31 11.22Q90.16 9.82 88.51 9.09Q86.86 8.35 84.82 8.35L84.82 8.35ZM127.35 12.58L127.35 12.58Q127.35 15.23 125.82 17.02Q124.28 18.82 120.92 19.42L120.92 19.42L128.34 27.94Q129.11 28.83 130.17 29.30Q131.22 29.76 132.31 29.76L132.31 29.76L132.31 31.04L124.73 31.04L116.79 21.31Q115.99 20.35 115.40 20.02Q114.81 19.68 114.30 19.68L114.30 19.68L114.30 25.95Q114.30 27.14 114.46 27.89Q114.62 28.64 115.10 29.06Q115.58 29.47 116.49 29.62Q117.40 29.76 118.94 29.76L118.94 29.76L118.94 31.04L106.23 31.04L106.23 29.76Q107.29 29.76 107.94 29.62Q108.60 29.47 108.97 29.07Q109.34 28.67 109.46 27.95Q109.59 27.23 109.59 26.11L109.59 26.11L109.59 11.33Q109.59 10.21 109.50 9.52Q109.40 8.83 109.08 8.43Q108.76 8.03 108.17 7.89Q107.58 7.74 106.58 7.68L106.58 7.68L106.58 6.40L117.66 6.40Q122.30 6.40 124.82 8.03Q127.35 9.66 127.35 12.58ZM114.30 8.74L114.30 17.76L116.38 17.76Q119.38 17.76 120.87 16.59Q122.36 15.42 122.36 12.74L122.36 12.74Q122.36 10.69 121.11 9.44Q119.86 8.19 117.66 8.19L117.66 8.19L114.87 8.19Q114.30 8.19 114.30 8.74L114.30 8.74ZM145.38 9.28L145.38 17.41Q147.42 17.41 148.67 17.28Q149.92 17.15 150.61 16.75Q151.30 16.35 151.58 15.58Q151.87 14.82 152.03 13.50L152.03 13.50L153.22 13.50L153.22 22.88L152.03 22.88Q151.84 21.60 151.52 20.83Q151.20 20.06 150.50 19.66Q149.79 19.26 148.59 19.15Q147.39 19.04 145.38 19.04L145.38 19.04L145.38 25.63Q145.38 26.66 145.65 27.36Q145.92 28.06 146.56 28.50Q147.20 28.93 148.26 29.10Q149.31 29.28 150.85 29.28L150.85 29.28Q152.67 29.28 153.94 29.02Q155.20 28.77 156.03 28.13Q156.86 27.49 157.38 26.42Q157.89 25.34 158.24 23.71L158.24 23.71L159.52 23.71L159.01 31.04L137.31 31.04L137.31 29.76Q138.37 29.73 139.04 29.57Q139.71 29.41 140.06 29.02Q140.42 28.64 140.54 27.94Q140.67 27.23 140.67 26.11L140.67 26.11L140.67 11.33Q140.67 10.21 140.56 9.52Q140.45 8.83 140.13 8.43Q139.81 8.03 139.22 7.89Q138.62 7.74 137.66 7.68L137.66 7.68L137.66 6.40L157.89 6.40L158.11 12.67L156.74 12.67Q156.54 11.33 156.13 10.45Q155.71 9.57 154.98 9.04Q154.24 8.51 153.07 8.30Q151.90 8.10 150.21 8.10L150.21 8.10L146.59 8.10Q145.76 8.10 145.57 8.30Q145.38 8.51 145.38 9.28L145.38 9.28ZM191.40 6.40L191.72 13.44L190.34 13.44Q190.25 11.87 189.88 10.83Q189.51 9.79 188.84 9.17Q188.17 8.54 187.21 8.30Q186.25 8.06 184.97 8.06L184.97 8.06Q183.72 8.06 182.97 8.11Q182.22 8.16 181.82 8.27Q181.42 8.38 181.29 8.58Q181.16 8.77 181.16 9.06L181.16 9.06L181.16 25.82Q181.16 26.85 181.30 27.58Q181.45 28.32 181.90 28.78Q182.34 29.25 183.21 29.49Q184.07 29.73 185.48 29.76L185.48 29.76L185.48 31.04L172.07 31.04L172.07 29.76Q173.51 29.73 174.38 29.49Q175.24 29.25 175.70 28.78Q176.17 28.32 176.31 27.58Q176.46 26.85 176.46 25.82L176.46 25.82L176.46 9.06Q176.46 8.77 176.34 8.58Q176.23 8.38 175.88 8.27Q175.53 8.16 174.87 8.11Q174.22 8.06 173.16 8.06L173.16 8.06Q172.01 8.06 170.95 8.18Q169.90 8.29 169.10 8.82Q168.30 9.34 167.80 10.42Q167.30 11.49 167.27 13.44L167.27 13.44L166.02 13.44L166.34 6.40L191.40 6.40ZM221.33 14.34L221.33 21.12Q221.33 23.84 220.74 25.78Q220.14 27.71 218.90 28.96Q217.65 30.21 215.68 30.78Q213.71 31.36 210.96 31.36L210.96 31.36Q205.81 31.36 203.42 29.20Q201.04 27.04 201.04 22.30L201.04 22.30L201.04 13.54Q201.04 12.29 201.01 11.44Q200.98 10.59 200.91 10.02Q200.85 9.44 200.74 9.07Q200.62 8.70 200.46 8.45L200.46 8.45Q200.18 8 199.63 7.84Q199.09 7.68 197.97 7.68L197.97 7.68L197.97 6.40L209.46 6.40L209.46 7.68Q208.11 7.68 207.47 7.82Q206.83 7.97 206.48 8.38L206.48 8.38Q206.26 8.64 206.11 9.01Q205.97 9.38 205.89 9.97Q205.81 10.56 205.78 11.42Q205.74 12.29 205.74 13.54L205.74 13.54L205.74 21.92Q205.74 25.57 207.30 27.31Q208.85 29.06 212.08 29.06L212.08 29.06Q218.67 29.06 218.67 21.73L218.67 21.73L218.67 14.34Q218.67 12.99 218.62 12.03Q218.58 11.07 218.46 10.40Q218.35 9.73 218.18 9.28Q218 8.83 217.74 8.54L217.74 8.54Q217.30 8.10 216.59 7.89Q215.89 7.68 214.64 7.68L214.64 7.68L214.64 6.40L225.01 6.40L225.01 7.68Q223.82 7.68 223.18 7.86Q222.54 8.03 222.19 8.48L222.19 8.48Q221.94 8.77 221.78 9.23Q221.62 9.70 221.52 10.38Q221.42 11.07 221.38 12.03Q221.33 12.99 221.33 14.34L221.33 14.34ZM252.50 12.58L252.50 12.58Q252.50 15.23 250.97 17.02Q249.43 18.82 246.07 19.42L246.07 19.42L253.50 27.94Q254.26 28.83 255.32 29.30Q256.38 29.76 257.46 29.76L257.46 29.76L257.46 31.04L249.88 31.04L241.94 21.31Q241.14 20.35 240.55 20.02Q239.96 19.68 239.45 19.68L239.45 19.68L239.45 25.95Q239.45 27.14 239.61 27.89Q239.77 28.64 240.25 29.06Q240.73 29.47 241.64 29.62Q242.55 29.76 244.09 29.76L244.09 29.76L244.09 31.04L231.38 31.04L231.38 29.76Q232.44 29.76 233.10 29.62Q233.75 29.47 234.12 29.07Q234.49 28.67 234.62 27.95Q234.74 27.23 234.74 26.11L234.74 26.11L234.74 11.33Q234.74 10.21 234.65 9.52Q234.55 8.83 234.23 8.43Q233.91 8.03 233.32 7.89Q232.73 7.74 231.74 7.68L231.74 7.68L231.74 6.40L242.81 6.40Q247.45 6.40 249.98 8.03Q252.50 9.66 252.50 12.58ZM239.45 8.74L239.45 17.76L241.53 17.76Q244.54 17.76 246.02 16.59Q247.51 15.42 247.51 12.74L247.51 12.74Q247.51 10.69 246.26 9.44Q245.02 8.19 242.81 8.19L242.81 8.19L240.02 8.19Q239.45 8.19 239.45 8.74L239.45 8.74Z" transform="translate(0, 0)"></path></g></svg></svg>
                </g>
            </svg>
        